<svg width="32" height="32" viewBox="0 0 32 32" fill="none" xmlns="http://www.w3.org/2000/svg">
  <path d="M16 32C24.8366 32 32 24.8366 32 16C32 7.16344 24.8366 0 16 0C7.16344 0 0 7.16344 0 16C0 24.8366 7.16344 32 16 32Z" fill="#D5FF5C"/>
  <path d="M16.0001 28.8C23.0693 28.8 28.8001 23.0692 28.8001 16C28.8001 8.93075 23.0693 3.20001 16.0001 3.20001C8.93086 3.20001 3.20012 8.93075 3.20012 16C3.20012 23.0692 8.93086 28.8 16.0001 28.8Z" fill="#0A0A0A"/>
  <path d="M16.0001 25.6C21.3021 25.6 25.6001 21.302 25.6001 16C25.6001 10.698 21.3021 6.40001 16.0001 6.40001C10.6981 6.40001 6.40012 10.698 6.40012 16C6.40012 21.302 10.6981 25.6 16.0001 25.6Z" fill="#D5FF5C"/>
  <path d="M16.0001 22.4C19.5347 22.4 22.4001 19.5346 22.4001 16C22.4001 12.4654 19.5347 9.60001 16.0001 9.60001C12.4655 9.60001 9.60012 12.4654 9.60012 16C9.60012 19.5346 12.4655 22.4 16.0001 22.4Z" fill="#0A0A0A"/>
  <path d="M16.0001 19.2C17.7674 19.2 19.2001 17.7673 19.2001 16C19.2001 14.2327 17.7674 12.8 16.0001 12.8C14.2328 12.8 12.8001 14.2327 12.8001 16C12.8001 17.7673 14.2328 19.2 16.0001 19.2Z" fill="#D5FF5C"/>
</svg>
